<?xml version="1.0" encoding="UTF-8" standalone="no"?>
<svg
   xmlns:dc="http://purl.org/dc/elements/1.1/"
   xmlns:cc="http://creativecommons.org/ns#"
   xmlns:rdf="http://www.w3.org/1999/02/22-rdf-syntax-ns#"
   xmlns:svg="http://www.w3.org/2000/svg"
   xmlns="http://www.w3.org/2000/svg"
   xmlns:xlink="http://www.w3.org/1999/xlink"
   xmlns:sodipodi="http://sodipodi.sourceforge.net/DTD/sodipodi-0.dtd"
   xmlns:inkscape="http://www.inkscape.org/namespaces/inkscape"
   width="256"
   height="256"
   viewBox="0 0 256 256"
   id="svg2"
   version="1.1"
   inkscape:version="0.91 r13725"
   sodipodi:docname="icon.svg"
   inkscape:export-filename="C:\plugins-development\woocommerce-contasimple\assets\icon-256x256.png"
   inkscape:export-xdpi="90"
   inkscape:export-ydpi="90">
  <metadata
     id="metadata10">
    <rdf:RDF>
      <cc:Work
         rdf:about="">
        <dc:format>image/svg+xml</dc:format>
        <dc:type
           rdf:resource="http://purl.org/dc/dcmitype/StillImage" />
        <dc:title></dc:title>
      </cc:Work>
    </rdf:RDF>
  </metadata>
  <defs
     id="defs8" />
  <sodipodi:namedview
     pagecolor="#ffffff"
     bordercolor="#666666"
     borderopacity="1"
     objecttolerance="10"
     gridtolerance="10"
     guidetolerance="10"
     inkscape:pageopacity="0"
     inkscape:pageshadow="2"
     inkscape:window-width="1920"
     inkscape:window-height="1057"
     id="namedview6"
     showgrid="false"
     inkscape:zoom="0.5"
     inkscape:cx="185.60949"
     inkscape:cy="100.01829"
     inkscape:window-x="1358"
     inkscape:window-y="-8"
     inkscape:window-maximized="1"
     inkscape:current-layer="g4874"
     showborder="true"
     inkscape:showpageshadow="true"
     fit-margin-top="0"
     fit-margin-left="0"
     fit-margin-right="0"
     fit-margin-bottom="0"
     showguides="false" />
  <use
     id="use4214"
     xlink:href="#g3386"
     y="0"
     x="0"
     width="100%"
     height="100%"
     style="fill:#4a498c;fill-opacity:0.75568183"
     transform="translate(5.2503321e-6,-1539.502)" />
  <g
     id="g4"
     transform="matrix(1.4151191,0,0,1.4151191,274.76272,-1264.7393)">
    <g
       id="g4874">
      <path
         style="opacity:1;fill:#4a6c9a;fill-opacity:1;stroke:none;stroke-opacity:0.44936709"
         d="m -194.16225,893.73345 c 0,60.30117 0,120.60235 0,180.90355 60.30117,0 120.602323,0 180.903484,0 0,-60.3012 0,-120.60238 0,-180.90355 -60.301161,0 -120.602314,0 -180.903484,0 z m 41.68527,31.96934 c 12.99017,0.1059 25.99882,-0.21581 38.977,0.16816 7.83507,0.5603 8.6697,9.06539 8.18247,15.19904 0,7.58306 0,15.16612 0,22.74918 -5.80455,0 -11.60909,0 -17.41364,0 0,-7.69801 0,-15.39601 0,-23.09402 -7.54862,0 -15.09724,0 -22.64586,0 0,28.97336 0,57.94669 0,86.92015 7.54862,0 15.09724,0 22.64586,0 0,-8.1962 0,-16.3925 0,-24.5887 5.80455,0 11.60909,0 17.41364,0 -0.20914,10.8457 0.44374,21.7526 -0.37571,32.5555 -1.64261,8.1132 -10.67519,7.0865 -16.96337,7.0556 -11.11021,-0.2155 -22.28488,0.4528 -33.35087,-0.3758 -8.1964,-1.8638 -6.78232,-11.0987 -6.85799,-17.4753 0.10651,-30.28922 -0.21414,-60.59602 0.16232,-90.87406 0.31636,-5.33988 5.17965,-8.57697 10.22615,-8.23975 z m 69.805043,41.47968 c 10.231529,0.0898 20.478465,-0.18441 30.699868,0.14596 7.715371,0.58226 7.503831,9.04964 7.267219,14.82441 0,3.18118 0,6.36236 0,9.54354 -5.40605,0 -10.8121,0 -16.21815,0 0,-3.88636 0,-7.77271 0,-11.65906 -5.007452,0 -10.014901,0 -15.022353,0 0,3.63724 0,7.27448 0,10.91172 9.442886,5.71356 19.245134,10.89426 28.447004,16.96546 4.771003,4.758 2.344289,11.9692 2.942796,17.9832 -0.262528,5.6852 1.586883,13.8091 -5.338966,16.1861 -9.472652,1.2229 -19.151665,0.2937 -28.712873,0.5839 -6.238765,0.775 -14.656803,-1.3163 -13.705684,-9.3423 0,-5.406 0,-10.8121 0,-16.2181 5.455908,0 10.911816,0 16.367723,0 0,4.2351 0,8.4703 0,12.7055 5.007452,0 10.014901,0 15.022353,0 0,-3.9861 0,-7.9721 0,-11.9582 -9.454278,-5.7728 -19.299617,-10.9718 -28.489135,-17.1335 -4.720935,-4.7193 -2.301736,-11.85795 -2.900941,-17.81514 0.114253,-5.40804 -1.205799,-13.07056 5.423128,-15.13964 1.363561,-0.43631 2.794946,-0.58265 4.218011,-0.58385 z"
         id="rect4872"
         inkscape:connector-curvature="0" />
      <g
         style="font-style:normal;font-weight:normal;font-size:165.08403015px;line-height:125%;font-family:sans-serif;letter-spacing:0px;word-spacing:0px;fill:#ffffff;fill-opacity:1;stroke:none;stroke-width:1px;stroke-linecap:butt;stroke-linejoin:miter;stroke-opacity:1"
         id="text4879" />
      <path
         id="rect4872-4"
         style="opacity:1;fill:#ffffff;fill-opacity:1;stroke:none;stroke-opacity:0.44936709"
         d="m -194.16226,893.73346 c 0,60.30117 0,120.60234 0,180.90354 60.30117,0 120.602328,0 180.903508,0 0,-60.3012 0,-120.60237 0,-180.90354 -60.30118,0 -120.602338,0 -180.903508,0 z m 41.68527,31.96934 c 12.99017,0.1059 25.99882,-0.21581 38.97701,0.16816 7.83507,0.5603 8.6697,9.06539 8.18247,15.19904 0,7.58306 0,15.16612 0,22.74918 -5.80455,0 -11.6091,0 -17.41365,0 0,-7.69801 0,-15.39601 0,-23.09402 -7.54862,0 -15.09724,0 -22.64586,0 0,28.97336 0,57.94672 0,86.92014 7.54862,0 15.09724,0 22.64586,0 0,-8.1962 0,-16.3925 0,-24.5887 5.80455,0 11.6091,0 17.41365,0 -0.20914,10.8457 0.44374,21.7526 -0.37571,32.5555 -1.64261,8.1132 -10.6752,7.0865 -16.96338,7.0556 -11.11021,-0.2155 -22.28488,0.4528 -33.35087,-0.3758 -8.1964,-1.8638 -6.78232,-11.0987 -6.85799,-17.4753 0.10651,-30.28921 -0.21414,-60.59601 0.16232,-90.87405 0.31636,-5.33988 5.17965,-8.57697 10.22615,-8.23975 z m 69.805048,41.47968 c 10.23154,0.0898 20.47846,-0.18441 30.69988,0.14596 7.71536,0.58226 7.50383,9.04963 7.26722,14.82441 0,3.18118 0,6.36236 0,9.54354 -5.40606,0 -10.8121,0 -16.21816,0 0,-3.88636 0,-7.77271 0,-11.65906 -5.00746,0 -10.01489,0 -15.02235,0 0,3.63724 0,7.27447 0,10.91172 9.44289,5.71356 19.24514,10.89425 28.447,16.96545 4.77101,4.758 2.34429,11.9692 2.9428,17.9832 -0.26253,5.6852 1.58689,13.8091 -5.33896,16.1861 -9.47265,1.2229 -19.15168,0.2937 -28.71289,0.5839 -6.23876,0.775 -14.6568,-1.3163 -13.70568,-9.3423 0,-5.406 0,-10.8121 0,-16.2181 5.45592,0 10.91183,0 16.36773,0 0,4.2351 0,8.4703 0,12.7055 5.00746,0 10.01489,0 15.02235,0 0,-3.9861 0,-7.9721 0,-11.9582 -9.45428,-5.7728 -19.29962,-10.9718 -28.48913,-17.1335 -4.72093,-4.71929 -2.30173,-11.85794 -2.90095,-17.81513 0.11426,-5.40804 -1.2058,-13.07056 5.42314,-15.13964 1.36356,-0.43631 2.79494,-0.58266 4.218,-0.58385 z m -111.490318,-73.44903 180.903498,0 0,180.90355 -180.903498,0 z"
         inkscape:connector-curvature="0" />
    </g>
  </g>
</svg>
